<svg xmlns="http://www.w3.org/2000/svg" width="56" height="56" viewBox="0 0 56 56"><g stroke="#A0AAB8" stroke-width="1.4" opacity="0.95"><line x1="14" y1="20" x2="28" y2="14"/><line x1="14" y1="20" x2="28" y2="28"/><line x1="14" y1="20" x2="28" y2="42"/><line x1="14" y1="36" x2="28" y2="14"/><line x1="14" y1="36" x2="28" y2="28"/><line x1="14" y1="36" x2="28" y2="42"/><line x1="28" y1="14" x2="42" y2="20"/><line x1="28" y1="14" x2="42" y2="36"/><line x1="28" y1="28" x2="42" y2="20"/><line x1="28" y1="28" x2="42" y2="36"/><line x1="28" y1="42" x2="42" y2="20"/><line x1="28" y1="42" x2="42" y2="36"/></g><g fill="#A0AAB8"><circle cx="14" cy="20" r="3.4"/><circle cx="14" cy="36" r="3.4"/><circle cx="28" cy="14" r="3.4"/><circle cx="28" cy="28" r="3.4"/><circle cx="28" cy="42" r="3.4"/><circle cx="42" cy="20" r="3.4"/><circle cx="42" cy="36" r="3.4"/></g></svg>
